<svg width="170" height="48" viewBox="0 0 170 48" fill="none" xmlns="http://www.w3.org/2000/svg">
<g clip-path="url(#clip0_616_22660)">
<path d="M0 0H48.0205V48.293H0V0Z" fill="black"/>
<mask id="mask0_616_22660" style="mask-type:luminance" maskUnits="userSpaceOnUse" x="0" y="0" width="49" height="49">
<path d="M0 0H48.0205V48.293H0V0Z" fill="white"/>
</mask>
<g mask="url(#mask0_616_22660)">
<path fill-rule="evenodd" clip-rule="evenodd" d="M1.8064 40.0958L20.2529 35.9368L1.81833 29.3578L20.4766 30.9498L6.79704 20.8778L22.4818 26.6338L7.39751 7.41878L26.4942 22.4858L20.7569 6.83578L30.2829 20.1328L29.4349 1.82178L35.4087 20.1888L39.8605 1.80078V40.0468L1.8064 40.0958Z" fill="white"/>
</g>
<path fill-rule="evenodd" clip-rule="evenodd" d="M167.508 24.1959C168.761 24.1959 169.777 23.1739 169.777 21.9139C169.777 20.6519 168.761 19.6309 167.508 19.6309C166.255 19.6309 165.24 20.6519 165.24 21.9139C165.24 23.1739 166.255 24.1959 167.508 24.1959Z" stroke="black" stroke-width="0.25"/>
<path fill-rule="evenodd" clip-rule="evenodd" d="M166.378 23.2756C166.556 23.2646 166.743 23.2546 166.914 23.2546C167.053 23.2546 167.24 23.2646 167.419 23.2756V23.1816H167.324C167.145 23.1816 167.101 23.1406 167.101 22.9326V22.0436C167.43 22.0436 167.438 22.0676 167.585 22.2596L168.36 23.2756C168.462 23.2646 168.571 23.2546 168.677 23.2546C168.788 23.2546 168.897 23.2646 169.003 23.2756V23.1816C168.844 23.1686 168.765 23.1526 168.606 22.9436L168.04 22.2036C167.952 22.0926 167.87 22.0166 167.805 21.9646C168.281 21.8636 168.514 21.5496 168.514 21.1766C168.514 20.5526 168.044 20.3906 167.523 20.3906C167.339 20.3906 167.157 20.4126 166.914 20.4126C166.743 20.4126 166.556 20.4016 166.378 20.3906V20.4866H166.473C166.652 20.4866 166.696 20.5256 166.696 20.7346V22.9326C166.696 23.1406 166.652 23.1816 166.473 23.1816H166.378V23.2756ZM167.101 20.6286C167.101 20.5406 167.122 20.5316 167.249 20.5316C167.992 20.5316 168.078 20.8986 168.078 21.2526C168.078 21.5106 167.972 21.9246 167.289 21.9246C167.22 21.9246 167.153 21.9206 167.101 21.9166V20.6286Z" fill="black"/>
<path fill-rule="evenodd" clip-rule="evenodd" d="M59.7505 39.652V19.543H71.566V20.846H63.5143V28.605H71.1047V29.907H63.5143V38.349H71.6893V39.652H59.7505Z" fill="black"/>
<path fill-rule="evenodd" clip-rule="evenodd" d="M80.404 38.349H82.7482C88.7658 38.349 90.0314 33.973 90.0314 30.032C90.0314 24.973 87.6852 20.846 82.9341 20.846H80.404V38.349ZM76.6411 19.543H83.1508C90.3694 19.543 93.7942 24.693 93.7942 29.971C93.7942 36.395 89.6914 39.652 83.8606 39.652H76.6411V19.543Z" fill="black"/>
<path fill-rule="evenodd" clip-rule="evenodd" d="M98.4648 39.653H102.229V19.543H98.4648V39.653Z" fill="black"/>
<path fill-rule="evenodd" clip-rule="evenodd" d="M109.177 36.0534C110.227 37.7294 111.337 38.6284 113.313 38.6284C115.039 38.6284 116.891 37.2334 116.891 35.1524C116.891 29.3174 107.512 32.0804 107.512 24.8804C107.512 21.6524 110.196 18.9834 113.928 18.9834C116.397 18.9834 118.896 20.3504 119.945 22.5834L118.649 23.4224C117.877 21.8084 116.675 20.5674 114.545 20.5674C112.479 20.5674 111.276 22.1504 111.276 24.0734C111.276 28.7904 120.654 26.8044 120.654 34.0674C120.654 37.7594 117.446 40.2114 114.083 40.2114C111.368 40.2114 109.177 39.4044 107.788 37.0764L109.177 36.0534Z" fill="black"/>
<path fill-rule="evenodd" clip-rule="evenodd" d="M133.925 38.9084C138.739 38.9084 139.819 33.5074 139.819 29.5974C139.819 25.6874 138.739 20.2874 133.925 20.2874C129.112 20.2874 128.063 25.6874 128.063 29.5974C128.063 33.5074 129.112 38.9084 133.925 38.9084ZM133.925 18.9834C139.726 18.9834 143.86 23.6704 143.86 29.5974C143.86 35.5254 139.726 40.2114 133.925 40.2114C128.155 40.2114 124.021 35.5254 124.021 29.5974C124.021 23.6704 128.155 18.9834 133.925 18.9834Z" fill="black"/>
<path fill-rule="evenodd" clip-rule="evenodd" d="M148.129 39.652V19.543H151.492L161.949 33.384H162.012V19.543H163.616V39.652H161.949L149.795 23.608H149.732V39.652H148.129Z" fill="black"/>
<path fill-rule="evenodd" clip-rule="evenodd" d="M60.194 13.577C60.5369 14.125 60.8998 14.419 61.544 14.419C62.1097 14.419 62.7141 13.963 62.7141 13.283C62.7141 11.377 59.6492 12.279 59.6492 9.927C59.6492 8.872 60.526 8 61.7458 8C62.5531 8 63.3693 8.446 63.7113 9.176L63.2878 9.45C63.0362 8.923 62.6426 8.518 61.9476 8.518C61.2726 8.518 60.8789 9.034 60.8789 9.663C60.8789 11.204 63.9429 10.556 63.9429 12.928C63.9429 14.135 62.8951 14.936 61.7965 14.936C60.9098 14.936 60.194 14.673 59.7396 13.912L60.194 13.577Z" fill="black"/>
<path fill-rule="evenodd" clip-rule="evenodd" d="M67.996 14.511C69.5687 14.511 69.9216 12.745 69.9216 11.468C69.9216 10.191 69.5687 8.427 67.996 8.427C66.4232 8.427 66.0812 10.191 66.0812 11.468C66.0812 12.745 66.4232 14.511 67.996 14.511ZM67.996 8C69.8918 8 71.2419 9.532 71.2419 11.468C71.2419 13.405 69.8918 14.936 67.996 14.936C66.1101 14.936 64.76 13.405 64.76 11.468C64.76 9.532 66.1101 8 67.996 8Z" fill="black"/>
<path fill-rule="evenodd" clip-rule="evenodd" d="M73.6011 8.18262V12.8776C73.6011 13.8916 74.4889 14.2666 74.9929 14.2666C75.5675 14.2666 76.5657 14.0646 76.5657 12.9386V8.18262H77.0896V13.0906C77.0896 13.9326 76.4533 14.9356 74.8001 14.9356C73.7224 14.9356 72.3713 14.5206 72.3713 12.8476V8.18262H73.6011Z" fill="black"/>
<path fill-rule="evenodd" clip-rule="evenodd" d="M79.4488 14.7526V8.60862H78.1484V8.18262H81.9789V8.60862H80.6776V14.7526H79.4488Z" fill="black"/>
<path fill-rule="evenodd" clip-rule="evenodd" d="M83.0188 14.7526V8.18262H84.2486V11.0716H86.9298V8.18262H88.1606V14.7526H86.9298V11.5896H84.2486V14.7526H83.0188Z" fill="black"/>
<path fill-rule="evenodd" clip-rule="evenodd" d="M89.8047 14.7526V8.18262H93.666V8.60862H91.0335V11.1436H93.5139V11.5686H91.0335V14.3276H93.7057V14.7526H89.8047Z" fill="black"/>
<path fill-rule="evenodd" clip-rule="evenodd" d="M94.9993 14.7526V8.18262H97.8217C99.0097 8.18262 99.6758 9.06562 99.6758 10.1186C99.6758 11.1236 98.95 11.5596 97.9728 11.6806L99.7066 14.7526H98.3555L96.571 11.3866H96.6525C97.7401 11.3866 98.446 10.9616 98.446 9.97762C98.446 9.24662 98.0931 8.50762 96.8941 8.50762H96.229V14.7526H94.9993Z" fill="black"/>
<path fill-rule="evenodd" clip-rule="evenodd" d="M100.846 14.7526V8.18262H101.945L105.363 12.7046H105.382V8.18262H105.906V14.7526H105.363L101.39 9.51062H101.371V14.7526H100.846Z" fill="black"/>
<path fill-rule="evenodd" clip-rule="evenodd" d="M116.455 9.623C115.981 9.004 115.436 8.427 114.57 8.427C112.978 8.427 112.17 9.603 112.17 11.499C112.17 12.979 112.916 14.419 114.419 14.419C115.387 14.419 116.214 13.841 116.586 12.979L117.02 13.192C116.424 14.43 115.427 14.936 114.177 14.936C112.331 14.936 110.85 13.384 110.85 11.55C110.85 9.45 112.382 8 114.297 8C115.326 8 116.254 8.548 116.818 9.359L116.455 9.623Z" fill="black"/>
<path fill-rule="evenodd" clip-rule="evenodd" d="M119.513 10.2L118.565 12.614H120.471L119.513 10.2ZM122.597 14.753H121.337L120.642 13.039H118.395L117.739 14.753H117.165L119.824 8H119.846L122.597 14.753Z" fill="black"/>
<path fill-rule="evenodd" clip-rule="evenodd" d="M123.516 14.7526V8.18262H124.746V14.2356H127.368V14.7526H123.516Z" fill="black"/>
<path fill-rule="evenodd" clip-rule="evenodd" d="M128.345 14.7526H129.576V8.18262H128.345V14.7526Z" fill="black"/>
<path fill-rule="evenodd" clip-rule="evenodd" d="M131.348 14.7526V8.18262H135.098V8.60862H132.578V11.1436H134.877V11.5686H132.578V14.7526H131.348Z" fill="black"/>
<path fill-rule="evenodd" clip-rule="evenodd" d="M138.879 14.511C140.452 14.511 140.806 12.745 140.806 11.468C140.806 10.191 140.452 8.427 138.879 8.427C137.307 8.427 136.964 10.191 136.964 11.468C136.964 12.745 137.307 14.511 138.879 14.511ZM138.879 8C140.776 8 142.126 9.532 142.126 11.468C142.126 13.405 140.776 14.936 138.879 14.936C136.994 14.936 135.643 13.405 135.643 11.468C135.643 9.532 136.994 8 138.879 8Z" fill="black"/>
<path fill-rule="evenodd" clip-rule="evenodd" d="M143.253 14.7526V8.18262H146.077C147.266 8.18262 147.931 9.06562 147.931 10.1186C147.931 11.1236 147.204 11.5596 146.228 11.6806L147.962 14.7526H146.611L144.826 11.3866H144.907C145.995 11.3866 146.702 10.9616 146.702 9.97762C146.702 9.24662 146.348 8.50762 145.148 8.50762H144.483V14.7526H143.253Z" fill="black"/>
<path fill-rule="evenodd" clip-rule="evenodd" d="M149.102 14.7526V8.18262H150.201L153.618 12.7046H153.637V8.18262H154.161V14.7526H153.618L149.646 9.51062H149.626V14.7526H149.102Z" fill="black"/>
<path fill-rule="evenodd" clip-rule="evenodd" d="M155.888 14.7526H157.117V8.18262H155.888V14.7526Z" fill="black"/>
<path fill-rule="evenodd" clip-rule="evenodd" d="M160.535 10.2L159.586 12.614H161.491L160.535 10.2ZM163.619 14.753H162.36L161.663 13.039H159.416L158.759 14.753H158.185L160.847 8H160.867L163.619 14.753Z" fill="black"/>
</g>
<defs>
<clipPath id="clip0_616_22660">
<rect width="170" height="48" fill="white"/>
</clipPath>
</defs>
</svg>
