<svg width="135" height="40" viewBox="0 0 135 40" fill="none" xmlns="http://www.w3.org/2000/svg">
<g clip-path="url(#clip0_3566_1136)">
<path d="M2.7394 21.9858H8.06583C9.07387 21.9743 10.0735 22.1708 11.0022 22.5629C11.8714 22.9326 12.6552 23.4775 13.3045 24.1636C13.9563 24.8591 14.4637 25.677 14.797 26.57C15.1545 27.5275 15.3331 28.5425 15.3238 29.5645V29.6081C15.3325 30.6336 15.154 31.6521 14.797 32.6135C14.4657 33.5107 13.9582 34.3326 13.3045 35.0308C12.6538 35.7181 11.8706 36.2663 11.0022 36.6424C10.0753 37.0417 9.07497 37.242 8.06583 37.2304H2.7394V21.9858ZM8.06583 34.2032C8.64158 34.2103 9.21266 34.0991 9.74375 33.8766C10.2412 33.666 10.6846 33.3459 11.0412 32.9401C11.4082 32.5177 11.6928 32.0301 11.8802 31.5028C12.0889 30.9083 12.1913 30.2817 12.1826 29.6516V29.6081C12.1888 28.9783 12.0865 28.3521 11.8802 27.757C11.6962 27.2215 11.4114 26.7262 11.0412 26.2979C10.683 25.8912 10.2402 25.5679 9.74375 25.3505C9.21447 25.121 8.64268 25.006 8.06583 25.0129H5.74403V34.2032H8.06583ZM15.6248 21.9858H18.8441L21.6731 32.3086L24.7363 21.9422H27.3117L30.3749 32.3086L33.204 21.9858H36.3452L31.6822 37.3394H29.0677L25.985 27.3649L22.9023 37.3394H20.2879L15.6248 21.9858ZM38.1171 21.9858H43.6972C44.4464 21.9735 45.1911 22.1028 45.8922 22.3669C46.5099 22.6038 47.0689 22.9716 47.5311 23.4449C47.9877 23.9225 48.3399 24.4898 48.5651 25.1109C48.8129 25.7986 48.9351 26.5252 48.9261 27.2561V27.2996C48.9426 28.0975 48.7966 28.8903 48.4968 29.6299C48.2312 30.2687 47.8282 30.8412 47.3165 31.3068C46.8072 31.7618 46.2094 32.1066 45.5605 32.3195C44.865 32.5487 44.1368 32.6627 43.4046 32.657H41.1218V37.2304H38.1171L38.1171 21.9858ZM43.5021 29.6735C44.2563 29.6735 44.8417 29.452 45.2581 29.0092C45.6749 28.5649 45.8993 27.9739 45.8824 27.3649V27.3214C45.8824 26.5667 45.6646 25.9931 45.2288 25.6009C44.7929 25.209 44.1978 25.013 43.4436 25.0129H41.1218V29.6735L43.5021 29.6735ZM21.0408 6.2754L19.2154 11.2488H22.8662L21.0408 6.2754ZM0.000185083 0L0 20L0.000185083 40H51.6669V0H0.000185083ZM28.3621 17.6681H25.2019L23.9458 14.2285H18.1359L16.8796 17.6681H13.7981L19.6864 2.22222H22.4737L28.3621 17.6681ZM12.6124 14.6227V17.6681H2.73939V2.33185H5.76208V14.6228L12.6124 14.6227ZM0.740926 39.2593V20H50.9261V39.2593H0.740926ZM54.4076 2.33185H55.9115V10.0197H59.8008V11.4068H54.4076V2.33185ZM60.386 8.04907V7.93243C60.386 5.90995 61.7342 4.40613 63.5621 4.40613C65.3771 4.40613 66.7125 5.884 66.7125 7.91941V8.03605C66.7125 10.0585 65.3643 11.5494 63.5363 11.5494C61.7211 11.5494 60.386 10.0845 60.386 8.04907ZM65.2474 8.02312V7.94537C65.2474 6.66191 64.5345 5.70253 63.5363 5.70253C62.512 5.70253 61.8508 6.64889 61.8508 7.93244V8.0102C61.8508 9.29366 62.5639 10.266 63.5621 10.266C64.5863 10.266 65.2474 9.30658 65.2474 8.02312ZM67.2291 10.5771L67.9162 9.52703C68.5385 10.0326 69.1996 10.3308 69.8091 10.3308C70.4183 10.3308 70.7683 10.0067 70.7683 9.57884V9.56591C70.7683 9.0732 70.2368 8.85284 69.4201 8.50281C68.3959 8.06201 67.5402 7.59534 67.5402 6.46741V6.44146C67.5402 5.2099 68.5254 4.432 69.8091 4.432C70.6104 4.44486 71.3885 4.70276 72.0389 5.17102L71.4166 6.24705C70.8979 5.89702 70.3276 5.63769 69.783 5.63769C69.2385 5.63769 68.9144 5.9359 68.9144 6.31188V6.33774C68.9144 6.79148 69.459 7.02486 70.2628 7.38791C71.3258 7.8676 72.1297 8.36022 72.1297 9.43624V9.44917C72.1297 10.7975 71.1054 11.5365 69.783 11.5365C68.8465 11.5212 67.9441 11.1822 67.2291 10.5771ZM79.5828 2.27994H81.0348L84.3667 11.4068H82.7981L82.0461 9.2677H78.5198L77.7679 11.4068H76.2511L79.5828 2.27994ZM81.5794 7.93243L80.2829 4.2894L78.9866 7.93243H81.5794ZM85.2914 4.53571H86.7564V5.5469C87.1452 4.93764 87.7028 4.40613 88.6361 4.40613C89.9585 4.40613 90.7493 5.33947 90.7493 6.8045V11.4068H89.2844V7.21936C89.2844 6.25998 88.8307 5.72848 88.0527 5.72848C87.2879 5.72848 86.7564 6.29886 86.7564 7.24531V11.4068H85.2914V4.53571ZM92.1434 12.7422L92.623 11.5883C93.2446 11.9659 93.9572 12.1676 94.6845 12.1717C95.8902 12.1717 96.5513 11.5754 96.5513 10.3567V9.69548C96.0716 10.3697 95.4753 10.9012 94.4771 10.9012C93.1028 10.9012 91.8582 9.79928 91.8582 7.68602V7.63421C91.8582 5.50801 93.1158 4.40613 94.4771 4.40613C95.4882 4.40613 96.0976 4.95056 96.5383 5.55992V4.53571H98.0033V10.2919C98.0033 11.316 97.731 12.068 97.2255 12.5736C96.681 13.1311 95.8383 13.3903 94.7492 13.3903C93.8399 13.3974 92.9435 13.1745 92.1434 12.7422ZM96.5642 7.6731V7.64715C96.5642 6.44145 95.7994 5.68959 94.9178 5.68959C94.0233 5.68959 93.3361 6.42852 93.3361 7.64715V7.66017C93.3361 8.87879 94.0362 9.63074 94.9178 9.63074C95.7994 9.63074 96.5642 8.86577 96.5642 7.6731ZM99.1754 8.04907V7.94537C99.1754 5.88401 100.42 4.40614 102.105 4.40614C103.972 4.40614 104.958 5.96177 104.958 8.02313C104.958 8.11392 104.958 8.32135 104.945 8.52878H100.64C100.77 9.68257 101.483 10.3049 102.378 10.3049C103.026 10.3049 103.506 10.0197 103.959 9.57885L104.724 10.4863C104.423 10.8267 104.051 11.0978 103.635 11.2813C103.218 11.4648 102.768 11.5562 102.313 11.5494C100.55 11.5494 99.1754 10.2011 99.1754 8.04907ZM103.532 7.51757C103.454 6.42852 102.961 5.63769 102.105 5.63769C101.302 5.63769 100.731 6.35076 100.628 7.51757H103.532ZM106.146 2.04656H107.611V11.4068H106.146V2.04656ZM108.796 8.04907V7.94537C108.796 5.88401 110.041 4.40614 111.726 4.40614C113.593 4.40614 114.578 5.96177 114.578 8.02313C114.578 8.11392 114.578 8.32135 114.565 8.52878H110.261C110.391 9.68257 111.104 10.3049 111.998 10.3049C112.647 10.3049 113.126 10.0197 113.58 9.57885L114.345 10.4863C114.043 10.8267 113.672 11.0978 113.255 11.2813C112.839 11.4648 112.388 11.5562 111.934 11.5494C110.17 11.5494 108.796 10.2011 108.796 8.04907ZM113.152 7.51757C113.074 6.42852 112.582 5.63769 111.726 5.63769C110.922 5.63769 110.352 6.35076 110.248 7.51757H113.152ZM115.136 10.5771L115.823 9.52703C116.446 10.0326 117.107 10.3308 117.716 10.3308C118.325 10.3308 118.675 10.0067 118.675 9.57884V9.56591C118.675 9.0732 118.144 8.85284 117.327 8.50281C116.303 8.062 115.447 7.59533 115.447 6.4674V6.44145C115.447 5.2099 116.433 4.43199 117.716 4.43199C118.517 4.44485 119.296 4.70275 119.946 5.17102L119.324 6.24704C118.805 5.89702 118.235 5.63769 117.69 5.63769C117.146 5.63769 116.822 5.9359 116.822 6.31188V6.33774C116.822 6.79148 117.366 7.02486 118.17 7.3879C119.233 7.8676 120.037 8.36022 120.037 9.43624V9.44917C120.037 10.7975 119.012 11.5365 117.69 11.5365C116.754 11.5212 115.851 11.1822 115.136 10.5771ZM54.4076 15.2468H57.1819C59.7749 15.2468 61.4862 17.0618 61.4862 19.7195V19.8231C61.4862 22.4808 59.7749 24.3218 57.1819 24.3218H54.4076V15.2468ZM55.9115 16.608V22.9606H57.1691C58.8285 22.9606 59.9304 21.7808 59.9304 19.8361V19.7584C59.9304 17.8007 58.8285 16.608 57.1691 16.608H55.9115ZM62.2555 20.9641V20.8603C62.2555 18.799 63.5001 17.3211 65.1856 17.3211C67.0524 17.3211 68.0377 18.8767 68.0377 20.9382C68.0377 21.0288 68.0377 21.2362 68.0247 21.4437H63.7206C63.8502 22.5976 64.5633 23.2199 65.4577 23.2199C66.1061 23.2199 66.5857 22.9345 67.0394 22.4938L67.8044 23.4013C67.5027 23.7416 67.131 24.0128 66.7148 24.1963C66.2987 24.3798 65.8478 24.4713 65.393 24.4645C63.6298 24.4645 62.2555 23.1161 62.2555 20.9641ZM66.6117 20.4326C66.5338 19.3435 66.0412 18.5527 65.1856 18.5527C64.3817 18.5527 63.8113 19.2657 63.7077 20.4326H66.6117ZM69.1763 17.4507H70.6413V18.5527C71.069 17.8915 71.6654 17.3211 72.6507 17.3211C74.0249 17.3211 75.3214 18.4749 75.3214 20.7955V20.9771C75.3214 23.2847 74.0379 24.4515 72.6507 24.4515C71.6524 24.4515 71.0562 23.8939 70.6413 23.2847V26.2794H69.1763V17.4507ZM73.8433 20.951V20.8344C73.8433 19.4601 73.1305 18.6176 72.2488 18.6176C71.3672 18.6176 70.6153 19.4732 70.6153 20.8214V20.951C70.6153 22.2994 71.3672 23.155 72.2488 23.155C73.1433 23.155 73.8433 22.3253 73.8433 20.951ZM76.0838 22.3513V22.2864C76.0838 20.8085 77.0693 20.0824 78.5213 20.0824C79.0602 20.0813 79.5953 20.1734 80.1027 20.3548V20.0694C80.1027 19.1491 79.5584 18.6693 78.6249 18.6693C78.0479 18.6834 77.4812 18.825 76.9654 19.0842L76.5506 17.9175C77.2517 17.5554 78.0302 17.3685 78.8193 17.3729C79.7139 17.3729 80.401 17.6192 80.8419 18.073C81.2956 18.5268 81.5289 19.2008 81.5289 20.0566V24.3218H80.0899V23.4791C79.8823 23.7909 79.5979 24.0442 79.2642 24.2145C78.9305 24.3848 78.5585 24.4664 78.1842 24.4515C77.0432 24.4515 76.0838 23.6865 76.0838 22.3513ZM80.1158 22.0142V21.327C79.7126 21.1621 79.2809 21.0784 78.8453 21.0807C78.0026 21.0807 77.51 21.5086 77.51 22.2345V22.2605C77.51 22.9476 77.9896 23.3366 78.6249 23.3494C79.4676 23.3624 80.1158 22.792 80.1158 22.0142ZM82.9543 17.4507H84.4193V18.799C84.7823 17.9044 85.4435 17.2952 86.4806 17.347V18.9417H86.4159C85.223 18.9417 84.4193 19.7195 84.4193 21.2881V24.3218H82.9543V17.4507ZM87.8762 22.6624V18.7082H87.1242V17.4507H87.8762V15.5969H89.3412V17.4507H90.884V18.7082H89.3412V22.3642C89.3412 22.8957 89.6134 23.1161 90.0801 23.1161C90.3558 23.118 90.6276 23.0511 90.871 22.9217V24.1274C90.4968 24.3291 90.0773 24.4318 89.6523 24.4256C88.6412 24.4256 87.8762 23.9977 87.8762 22.6624ZM92.0978 17.4507H93.5629V18.449C93.9647 17.8396 94.4962 17.3211 95.4037 17.3211C95.7756 17.3082 96.143 17.406 96.4592 17.6022C96.7755 17.7984 97.0263 18.0841 97.1799 18.423C97.6465 17.8007 98.2688 17.3211 99.1893 17.3211C100.46 17.3211 101.289 18.1637 101.289 19.7195V24.3218H99.8246V20.1474C99.8246 19.1619 99.4098 18.6435 98.6578 18.6435C97.9447 18.6435 97.4262 19.188 97.4262 20.1602V24.3218H95.9612V20.1343C95.9612 19.1619 95.5333 18.6435 94.8074 18.6435C94.0683 18.6435 93.5629 19.2269 93.5629 20.1732V24.3218H92.0978V17.4507ZM102.436 20.9641V20.8603C102.436 18.799 103.68 17.3211 105.366 17.3211C107.233 17.3211 108.218 18.8767 108.218 20.9382C108.218 21.0288 108.218 21.2362 108.205 21.4437H103.901C104.03 22.5976 104.743 23.2199 105.638 23.2199C106.286 23.2199 106.766 22.9345 107.22 22.4938L107.985 23.4013C107.683 23.7416 107.311 24.0128 106.895 24.1963C106.479 24.3798 106.028 24.4713 105.573 24.4645C103.81 24.4645 102.436 23.1161 102.436 20.9641ZM106.792 20.4326C106.714 19.3435 106.221 18.5527 105.366 18.5527C104.562 18.5527 103.991 19.2657 103.888 20.4326H106.792ZM109.357 17.4507H110.822V18.4619C111.21 17.8526 111.768 17.3211 112.701 17.3211C114.024 17.3211 114.814 18.2544 114.814 19.7195V24.3218H113.35V20.1343C113.35 19.175 112.896 18.6435 112.118 18.6435C111.353 18.6435 110.822 19.2138 110.822 20.1602V24.3218H109.357V17.4507ZM116.422 22.6624V18.7082H115.67V17.4507H116.422V15.5969H117.887V17.4507H119.43V18.7082H117.887V22.3642C117.887 22.8957 118.16 23.1161 118.626 23.1161C118.902 23.118 119.174 23.0511 119.417 22.9217V24.1274C119.043 24.3291 118.623 24.4318 118.198 24.4256C117.187 24.4256 116.422 23.9977 116.422 22.6624ZM123.6 20.9641V20.8474C123.6 18.8248 124.948 17.3211 126.776 17.3211C128.591 17.3211 129.926 18.799 129.926 20.8344V20.951C129.926 22.9734 128.578 24.4645 126.75 24.4645C124.935 24.4645 123.6 22.9995 123.6 20.9641ZM128.461 20.9382V20.8603C128.461 19.5768 127.749 18.6176 126.75 18.6176C125.726 18.6176 125.065 19.564 125.065 20.8474V20.9252C125.065 22.2086 125.778 23.181 126.776 23.181C127.8 23.181 128.461 22.2217 128.461 20.9382ZM131.261 18.7082H130.496V17.4896H131.261V16.9581C131.261 16.258 131.429 15.7264 131.767 15.3894C132.104 15.0653 132.583 14.8967 133.206 14.8967C133.557 14.8883 133.907 14.9365 134.243 15.0394V16.271C134.012 16.1986 133.772 16.1594 133.53 16.1543C132.998 16.1543 132.713 16.4524 132.713 17.1007V17.4896H134.23V18.7082H132.726V24.3218H131.261L131.261 18.7082ZM53.7983 28.1552H55.3928L57.1691 34.741L59.0229 28.1292H60.3194L62.1733 34.741L63.9493 28.1552H65.5051L62.8603 37.2821H61.4991L59.6452 30.8776L57.7914 37.2821H56.4302L53.7983 28.1552ZM65.4585 35.2597V35.1948C65.4585 33.7169 66.4439 32.9908 67.8959 32.9908C68.4348 32.9897 68.9699 33.0818 69.4774 33.2632V32.9778C69.4774 32.0575 68.933 31.5777 67.9995 31.5777C67.4225 31.5917 66.8558 31.7334 66.3401 31.9926L65.9252 30.8257C66.6264 30.4638 67.4048 30.277 68.1939 30.2814C69.0886 30.2814 69.7756 30.5277 70.2165 30.9814C70.6702 31.4352 70.9035 32.1092 70.9035 32.965V37.2302H69.4646V36.3874C69.2569 36.6993 68.9726 36.9526 68.6388 37.1229C68.3051 37.2931 67.9332 37.3748 67.5588 37.3599C66.4179 37.3598 65.4585 36.5949 65.4585 35.2597ZM69.4904 34.9226V34.2354C69.0873 34.0704 68.6555 33.9867 68.22 33.9891C67.3772 33.9891 66.8846 34.417 66.8846 35.1429V35.1689C66.8846 35.8559 67.3642 36.2449 67.9995 36.2578C68.8423 36.2708 69.4904 35.7004 69.4904 34.9226ZM72.4716 35.5707V31.6166H71.7197V30.3592H72.4716V28.5051H73.9367V30.3592H75.4795V31.6166H73.9367V35.2725C73.9367 35.804 74.2088 36.0245 74.6756 36.0245C74.9513 36.0263 75.223 35.9595 75.4664 35.8301V37.0358C75.0923 37.2375 74.6727 37.3401 74.2477 37.334C73.2366 37.334 72.4716 36.9061 72.4716 35.5707ZM76.0493 33.8724V33.7686C76.0493 31.7074 77.2939 30.2295 78.9792 30.2295C80.846 30.2295 81.8313 31.7851 81.8313 33.8466C81.8313 33.9372 81.8313 34.1446 81.8182 34.352H77.5141C77.6438 35.506 78.3569 36.1283 79.2513 36.1283C79.8997 36.1283 80.3793 35.8429 80.833 35.4022L81.598 36.3097C81.2962 36.65 80.9246 36.9212 80.5084 37.1047C80.0923 37.2882 79.6414 37.3797 79.1866 37.3729C77.4234 37.3729 76.0493 36.0245 76.0493 33.8724ZM80.4051 33.3409C80.3274 32.2519 79.8347 31.461 78.9792 31.461C78.1753 31.461 77.6049 32.1741 77.5011 33.3409H80.4051ZM82.9699 30.3592H84.4349V31.7074C84.7979 30.8129 85.459 30.2034 86.4962 30.2554V31.85H86.4314C85.2386 31.85 84.4349 32.6279 84.4349 34.1965V37.2302H82.9699V30.3592ZM95.1702 36.2449C94.509 36.932 93.7182 37.3598 92.7069 37.3598C91.1772 37.3598 90.0103 36.3486 90.0103 34.8318V34.7929C90.0103 33.652 90.6456 32.7964 91.7864 32.1871C91.2679 31.461 91.0216 30.8776 91.0216 30.2295V30.1776C91.0216 29.0238 91.9291 28.0125 93.3811 28.0125C94.7034 28.0125 95.5851 28.933 95.5851 30.0998V30.1387C95.5851 31.2795 94.885 32.0056 93.7829 32.5371L95.183 34.2095C95.4736 33.6798 95.725 33.1295 95.935 32.5629L97.0888 33.0427C96.8256 33.8034 96.4732 34.5302 96.0388 35.2078L97.2834 36.6338L96.1813 37.3987L95.1702 36.2449ZM94.3794 35.3375L92.5642 33.1463C91.8253 33.5612 91.5142 34.1576 91.5142 34.728V34.7669C91.5082 34.9461 91.5394 35.1246 91.606 35.2911C91.6727 35.4576 91.7731 35.6084 91.9011 35.734C92.0291 35.8595 92.1819 35.9571 92.3496 36.0205C92.5173 36.0839 92.6964 36.1118 92.8755 36.1023C93.4328 36.1022 93.9256 35.804 94.3794 35.3375ZM94.2625 30.2034V30.1776C94.2625 29.6072 93.8867 29.2052 93.3551 29.2052C93.2244 29.2043 93.0949 29.2302 92.9747 29.2814C92.8544 29.3326 92.746 29.4079 92.656 29.5027C92.5661 29.5975 92.4966 29.7098 92.4519 29.8326C92.4071 29.9554 92.388 30.086 92.3959 30.2165V30.2423C92.3959 30.6963 92.5642 31.072 93.044 31.6815C93.8607 31.2925 94.2625 30.8257 94.2625 30.2034ZM100.971 28.1552H103.875C105.859 28.1552 107.142 29.296 107.142 31.1758V31.2017C107.142 33.2113 105.664 34.2614 103.785 34.2873H102.475V37.2302H100.971V28.1552ZM103.785 32.9261C104.939 32.9261 105.613 32.2389 105.613 31.2278V31.2147C105.613 30.1257 104.939 29.5294 103.785 29.5294H102.475V32.9261H103.785ZM107.584 33.8724V33.7558C107.584 31.7332 108.932 30.2295 110.76 30.2295C112.575 30.2295 113.91 31.7074 113.91 33.7428V33.8594C113.91 35.8818 112.562 37.3729 110.734 37.3729C108.919 37.3729 107.584 35.9078 107.584 33.8724ZM112.445 33.8466V33.7686C112.445 32.4852 111.733 31.526 110.734 31.526C109.71 31.526 109.049 32.4723 109.049 33.7558V33.8335C109.049 35.117 109.762 36.0894 110.76 36.0894C111.784 36.0894 112.445 35.13 112.445 33.8466ZM114.297 30.3592H115.801L116.968 35.0004L118.238 30.3461H119.483L120.753 35.0004L121.933 30.3592H123.411L121.479 37.2821H120.131L118.848 32.6926L117.551 37.2821H116.216L114.297 30.3592ZM123.806 33.8724V33.7686C123.806 31.7074 125.05 30.2295 126.736 30.2295C128.602 30.2295 129.588 31.7851 129.588 33.8466C129.588 33.9372 129.588 34.1446 129.575 34.352H125.271C125.4 35.506 126.113 36.1283 127.008 36.1283C127.656 36.1283 128.136 35.8429 128.589 35.4022L129.354 36.3097C129.053 36.65 128.681 36.9212 128.265 37.1047C127.849 37.2882 127.398 37.3797 126.943 37.3729C125.18 37.3729 123.806 36.0245 123.806 33.8724ZM128.162 33.3409C128.084 32.2519 127.591 31.461 126.736 31.461C125.932 31.461 125.361 32.1741 125.258 33.3409H128.162ZM130.726 30.3592H132.191V31.7074C132.554 30.8129 133.215 30.2034 134.253 30.2554V31.85H134.188C132.995 31.85 132.191 32.6279 132.191 34.1965V37.2302H130.726V30.3592Z" fill="#00609C"/>
</g>
<defs>
<clipPath id="clip0_3566_1136">
<rect width="134.253" height="40" fill="white"/>
</clipPath>
</defs>
</svg>
